<?xml version="1.0" encoding="utf-8"?>
<?xml-stylesheet type="text/xsl" href="rss1.xsl"?>
<rss version="2.0" xmlns:atom="http://www.w3.org/2005/Atom" xmlns:content="http://purl.org/rss/1.0/modules/content/" xmlns:dc="http://purl.org/dc/elements/1.1/" xmlns:media="http://search.yahoo.com/mrss/">
<channel>
 <title>Getty</title>
 <link>http://www.gettyimg.com/</link>
 <atom:link href="http://www.gettyimg.com/" rel="self" type="application/rss+xml" />

 
                <item>
                <title><![CDATA[【Singles (lossless)】ALAC - Ava Max - My Way | Apple LAC | 24bit / 44.1kHz | Apple Music Quality]]></title>
                <link><![CDATA[https://sharemania.us/threads/ava-max-my-way-apple-lac-24bit-44-1khz-apple-music-quality.233926/]]></link>
                <description><![CDATA[<article>
<blockquote class="messageText SelectQuoteContainer ugc baseHtml">
<img src="https://a1.mzstatic.com/r40/Music124/v4/ed/1a/01/ed1a01ba-4204-eba9-2890-645404b6ef52/075679870308.jpg" class="bbCodeImage LbImage" alt="[​IMG]" data-url="https://a1.mzstatic.com/r40/Music124/v4/ed/1a/01/ed1a01ba-4204-eba9-2890-645404b6ef52/075679870308.jpg" style=""> <br>
<br>
General<br>
<br>
Complete name :My Way.m4a<br>
<br>
Format : MPEG-4<br>
<br>
Format profile : Apple audio with iTunes info<br>
<br>
Codec ID : M4A (M4A /isom/iso2)<br>
<br>
File size : 26.3 MiB<br>
<br>
Duration : 2 min 21 s<br>
<br>
Overall bit rate mode : Variable<br>
<br>
Overall bit rate : 1 559 kb/s<br>
<br>
Album : My Way - Single<br>
<br>
Album/Performer : Ava Max<br>
<br>
Track name : My Way<br>
<br>
Performer : Ava Max<br>
<br>
Writing application : Lavf60.18.100<br>
<br>
Cover : Yes<br>
<br>
Encoding Params : Lavf60.18.100<br>
<br>
cdec : Lavf60.18.100<br>
<br>
tool : Lavf60.18.100<br>
<br>
<br>
Audio<br>
<br>
ID : 1<br>
<br>
Format : ALAC<br>
<br>
Codec ID : alac<br>
<br>
Codec ID/Info : Apple Lossless Audio Codec<br>
<br>
Duration : 2 min 21 s<br>
<br>
Duration_LastFrame : -49 ms<br>
<br>
Bit rate mode : Variable<br>
<br>
Bit rate : 1 512 kb/s<br>
<br>
Nominal bit rate : 2 117 kb/s<br>
<br>
Channel(s) : 2 channels<br>
<br>
Sampling rate : 44.1 kHz<br>
<br>
Bit depth : 24 bits<br>
<br>
Stream size : 25.5 MiB (97%)<br>
<br>
Default : Yes<br>
<br>
Alternate group : 1<br>
<br>
<br>
<div class="bbCodeBlock bbCodeVfcHH HiddenContent">
<div class="attribution type">Hidden Content:</div>
<blockquote>You must reply before you can see the hidden data contained here.</blockquote>
</div>
<div class="messageTextEndMarker">&nbsp;</div>
</blockquote>
</article>]]></description>
                <author><![CDATA[Crewe C]]></author>
                </item>

                
                <item>
                <title><![CDATA[【Cinema Center】SERIES - Tyler Perry's Young Dylan - Season 3 - 1080p Amazon WEB-DL DDP5.1 H.264-LAZY]]></title>
                <link><![CDATA[https://sharemania.us/threads/tyler-perrys-young-dylan-season-3-1080p-amazon-web-dl-ddp5-1-h-264-lazy.233925/]]></link>
                <description><![CDATA[<article>
<blockquote class="messageText SelectQuoteContainer ugc baseHtml">
Tyler Perry's Young Dylan:<img src="http:////cdn2.broadcasthe.net/tvdb/banners/v4/series/377185/banners/657856da864a1.jpg" class="bbCodeImage LbImage" alt="[​IMG]" data-url="http:////cdn2.broadcasthe.net/tvdb/banners/v4/series/377185/banners/657856da864a1.jpg" style=""><br>
<br>
<div class="bbCodeBlock bbCodeQuote">
<aside>
<blockquote class="quoteContainer"><div class="quote"><i><b>Synopsis:</b></i><br>
Young Dylan’s grandmother decides to send him to live indefinitely with her affluent son’s family. The Wilson family household is soon turned upside down as lifestyles clash between aspiring hip hop star and his straight-laced cousins.</div><div class="quoteExpand">Click to expand...</div></blockquote>
</aside>
</div>
<div class="ToggleTriggerAnchor bbCodeSpoilerContainer">
<button type="button" class="button bbCodeSpoilerButton ToggleTrigger Tooltip JsOnly" data-target="> .SpoilerTarget"><span>Spoiler: <span class="SpoilerTitle">MediaInfo</span></span></button>
<div class="SpoilerTarget bbCodeSpoilerText">General<br>
Unique ID : 135705529582012288786870770380603496786 (0x6617EF2E8D91F1563D9B69E1D1D59952)<br>
Complete name : Tyler.Perrys.Young.Dylan.S03E01.Friday.the.Juneteenth.1080p.AMZN.WEB-DL.DDP2.0.H.264-LAZY.mkv<br>
Format : Matroska<br>
Format version : Version 4<br>
File size : 1.52 GiB<br>
Duration : 22 min 35 s<br>
Overall bit rate : 9 652 kb/s<br>
Frame rate : 23.976 FPS<br>
Encoded date : 2023-12-12 17:54:52 UTC<br>
Writing application : mkvmerge v81.0 ('Milliontown') 64-bit<br>
Writing library : libebml v1.4.4 + libmatroska v1.7.1<br>
<br>
Video<br>
ID : 1<br>
Format : AVC<br>
Format/Info : Advanced Video Codec<br>
Format profile : High@L4<br>
Format settings : CABAC / 4 Ref Frames<br>
Format settings, CABAC : Yes<br>
Format settings, Reference frames : 4 frames<br>
Codec ID : V_MPEG4/ISO/AVC<br>
Duration : 22 min 35 s<br>
Bit rate mode : Constant<br>
Bit rate : 9 429 kb/s<br>
Nominal bit rate : 10 000 kb/s<br>
Width : 1 920 pixels<br>
Height : 1 080 pixels<br>
Display aspect ratio : 16:9<br>
Frame rate mode : Constant<br>
Frame rate : 23.976 (24000/1001) FPS<br>
Color space : YUV<br>
Chroma subsampling : 4:2:0<br>
Bit depth : 8 bits<br>
Scan type : Progressive<br>
Bits/(Pixel*Frame) : 0.190<br>
Stream size : 1.49 GiB (98%)<br>
Default : Yes<br>
Forced : No<br>
Color range : Limited<br>
Color primaries : BT.709<br>
Transfer characteristics : BT.709<br>
Matrix coefficients : BT.709<br>
<br>
Audio<br>
ID : 2<br>
Format : E-AC-3<br>
Format/Info : Enhanced AC-3<br>
Commercial name : Dolby Digital Plus<br>
Codec ID : A_EAC3<br>
Duration : 22 min 35 s<br>
Bit rate mode : Constant<br>
Bit rate : 224 kb/s<br>
Channel(s) : 2 channels<br>
Channel layout : L R<br>
Sampling rate : 48.0 kHz<br>
Frame rate : 31.250 FPS (1536 SPF)<br>
Compression mode : Lossy<br>
Stream size : 36.2 MiB (2%)<br>
Language : English<br>
Service kind : Complete Main<br>
Default : Yes<br>
Forced : No<br>
<br>
Text<br>
ID : 3<br>
Format : UTF-8<br>
Codec ID : S_TEXT/UTF8<br>
Codec ID/Info : UTF-8 Plain Text<br>
Duration : 22 min 26 s<br>
Bit rate : 92 b/s<br>
Frame rate : 0.345 FPS<br>
Count of elements : 465<br>
Stream size : 15.1 KiB (0%)<br>
Title : SDH<br>
Language : English<br>
Default : No<br>
Forced : No</div>
</div><br>
Screenshots:<br>
<img src="https://i.imgur.com/kdNyRdJ.jpg" class="bbCodeImage LbImage" alt="[​IMG]" data-url="https://i.imgur.com/kdNyRdJ.jpg" style=""> <br>
<br>
<div class="bbCodeBlock bbCodeVfcHH HiddenContent">
<div class="attribution type">Hidden Content:</div>
<blockquote>You must either reply or click 'Like' to see the hidden information contained here.</blockquote>
</div>
<div class="messageTextEndMarker">&nbsp;</div>
</blockquote>
</article>]]></description>
                <author><![CDATA[LazyRips]]></author>
                </item>

                
                <item>
                <title><![CDATA[【Cinema Center】SERIES - The Garfield Show - Season 2 - 1080p Amazon WEB-DL DDP2.0 H.264-LAZY]]></title>
                <link><![CDATA[https://sharemania.us/threads/the-garfield-show-season-2-1080p-amazon-web-dl-ddp2-0-h-264-lazy.233927/]]></link>
                <description><![CDATA[<article>
<blockquote class="messageText SelectQuoteContainer ugc baseHtml">
The Garfield Show:<img src="https://i.imgur.com/O637ApZ.jpg" class="bbCodeImage LbImage" alt="[​IMG]" data-url="https://i.imgur.com/O637ApZ.jpg" style=""><br>
<br>
<div class="bbCodeBlock bbCodeQuote">
<aside>
<blockquote class="quoteContainer"><div class="quote"><i><b>Synopsis:</b></i><br>
The Garfield Show picks up, mainly, on Garfield's usual antics and frolics, usually in function of his laziness and gluttony. It focuses on his quirky misadventures, while always highlighting the fat cat's love for lasagna. Garfield lives with his owner, Jon Arbuckle, and his owner's dog, Odie, in a detached 3-story house. The premise of the show, which is comedic slapstick, lies mainly in the events of each single episode. Usually Garfield has to solve problems that he himself causes, but always tries to skive off, and actually solves them in the end.</div><div class="quoteExpand">Click to expand...</div></blockquote>
</aside>
</div>
<div class="ToggleTriggerAnchor bbCodeSpoilerContainer">
<button type="button" class="button bbCodeSpoilerButton ToggleTrigger Tooltip JsOnly" data-target="> .SpoilerTarget"><span>Spoiler: <span class="SpoilerTitle">MediaInfo</span></span></button>
<div class="SpoilerTarget bbCodeSpoilerText">General<br>
Unique ID : 147164193676862258818570330896081132970 (0x6EB6CAF0A40B5349A88DD38FDA209DAA)<br>
Complete name : The.Garfield.Show.S02E01.Home.for.the.holidays.Part.1.1080p.AMZN.WEB-DL.DDP2.0.H.264-LAZY.mkv<br>
Format : Matroska<br>
Format version : Version 4<br>
File size : 603 MiB<br>
Duration : 12 min 6 s<br>
Overall bit rate : 6 963 kb/s<br>
Frame rate : 25.000 FPS<br>
Encoded date : 2023-12-13 18:15:05 UTC<br>
Writing application : mkvmerge v81.0 ('Milliontown') 64-bit<br>
Writing library : libebml v1.4.4 + libmatroska v1.7.1<br>
<br>
Video<br>
ID : 1<br>
Format : AVC<br>
Format/Info : Advanced Video Codec<br>
Format profile : High@L4<br>
Format settings : CABAC / 4 Ref Frames<br>
Format settings, CABAC : Yes<br>
Format settings, Reference frames : 4 frames<br>
Codec ID : V_MPEG4/ISO/AVC<br>
Duration : 12 min 6 s<br>
Bit rate mode : Constant<br>
Bit rate : 6 737 kb/s<br>
Nominal bit rate : 10 000 kb/s<br>
Width : 1 920 pixels<br>
Height : 1 080 pixels<br>
Display aspect ratio : 16:9<br>
Frame rate mode : Constant<br>
Frame rate : 25.000 FPS<br>
Color space : YUV<br>
Chroma subsampling : 4:2:0<br>
Bit depth : 8 bits<br>
Scan type : Progressive<br>
Bits/(Pixel*Frame) : 0.130<br>
Stream size : 584 MiB (97%)<br>
Default : Yes<br>
Forced : No<br>
Color range : Limited<br>
Color primaries : BT.709<br>
Transfer characteristics : BT.709<br>
Matrix coefficients : BT.709<br>
<br>
Audio<br>
ID : 2<br>
Format : E-AC-3<br>
Format/Info : Enhanced AC-3<br>
Commercial name : Dolby Digital Plus<br>
Codec ID : A_EAC3<br>
Duration : 12 min 6 s<br>
Bit rate mode : Constant<br>
Bit rate : 224 kb/s<br>
Channel(s) : 2 channels<br>
Channel layout : L R<br>
Sampling rate : 48.0 kHz<br>
Frame rate : 31.250 FPS (1536 SPF)<br>
Compression mode : Lossy<br>
Stream size : 19.4 MiB (3%)<br>
Language : English<br>
Service kind : Complete Main<br>
Default : Yes<br>
Forced : No<br>
<br>
Text<br>
ID : 3<br>
Format : UTF-8<br>
Codec ID : S_TEXT/UTF8<br>
Codec ID/Info : UTF-8 Plain Text<br>
Duration : 12 min 5 s<br>
Bit rate : 80 b/s<br>
Frame rate : 0.295 FPS<br>
Count of elements : 214<br>
Stream size : 7.14 KiB (0%)<br>
Title : SDH<br>
Language : English<br>
Default : No<br>
Forced : No</div>
</div><br>
Screenshots:<br>
<img src="https://i.imgur.com/x4H6psj.jpg" class="bbCodeImage LbImage" alt="[​IMG]" data-url="https://i.imgur.com/x4H6psj.jpg" style=""> <br>
<div class="bbCodeBlock bbCodeVfcHH HiddenContent">
<div class="attribution type">Hidden Content:</div>
<blockquote>You must either reply or click 'Like' to see the hidden information contained here.</blockquote>
</div>
<div class="messageTextEndMarker">&nbsp;</div>
</blockquote>
</article>]]></description>
                <author><![CDATA[LazyRips]]></author>
                </item>

                
                <item>
                <title><![CDATA[【Cinema Center】SERIES - Tyler Perry's Young Dylan - Season 2 - 1080p Amazon WEB-DL DDP2.0 H.264-LAZY]]></title>
                <link><![CDATA[https://sharemania.us/threads/tyler-perrys-young-dylan-season-2-1080p-amazon-web-dl-ddp2-0-h-264-lazy.233924/]]></link>
                <description><![CDATA[<article>
<blockquote class="messageText SelectQuoteContainer ugc baseHtml">
Tyler Perry's Young Dylan:<img src="http:////cdn2.broadcasthe.net/tvdb/banners/v4/series/377185/banners/657856da864a1.jpg" class="bbCodeImage LbImage" alt="[​IMG]" data-url="http:////cdn2.broadcasthe.net/tvdb/banners/v4/series/377185/banners/657856da864a1.jpg" style=""> <br>
<br>
<div class="bbCodeBlock bbCodeQuote">
<aside>
<blockquote class="quoteContainer"><div class="quote"><i><b>Synopsis:</b></i><br>
Young Dylan’s grandmother decides to send him to live indefinitely with her affluent son’s family. The Wilson family household is soon turned upside down as lifestyles clash between aspiring hip hop star and his straight-laced cousins.</div><div class="quoteExpand">Click to expand...</div></blockquote>
</aside>
</div>
<div class="ToggleTriggerAnchor bbCodeSpoilerContainer">
<button type="button" class="button bbCodeSpoilerButton ToggleTrigger Tooltip JsOnly" data-target="> .SpoilerTarget"><span>Spoiler: <span class="SpoilerTitle">MediaInfo</span></span></button>
<div class="SpoilerTarget bbCodeSpoilerText">General<br>
Unique ID : 25573418433106697419437810689291840670 (0x133D42E03C5C1650985A1A1E4267EC9E)<br>
Complete name : Tyler.Perrys.Young.Dylan.S02E01.Food.for.the.Soul.1080p.AMZN.WEB-DL.DDP5.1.H.264-LAZY.mkv<br>
Format : Matroska<br>
Format version : Version 4<br>
File size : 1.53 GiB<br>
Duration : 22 min 41 s<br>
Overall bit rate : 9 653 kb/s<br>
Frame rate : 23.976 FPS<br>
Encoded date : 2023-12-11 17:27:57 UTC<br>
Writing application : mkvmerge v81.0 ('Milliontown') 64-bit<br>
Writing library : libebml v1.4.4 + libmatroska v1.7.1<br>
<br>
Video<br>
ID : 1<br>
Format : AVC<br>
Format/Info : Advanced Video Codec<br>
Format profile : High@L4<br>
Format settings : CABAC / 4 Ref Frames<br>
Format settings, CABAC : Yes<br>
Format settings, Reference frames : 4 frames<br>
Codec ID : V_MPEG4/ISO/AVC<br>
Duration : 22 min 41 s<br>
Bit rate mode : Constant<br>
Bit rate : 9 011 kb/s<br>
Nominal bit rate : 10 000 kb/s<br>
Width : 1 920 pixels<br>
Height : 1 080 pixels<br>
Display aspect ratio : 16:9<br>
Frame rate mode : Constant<br>
Frame rate : 23.976 (24000/1001) FPS<br>
Color space : YUV<br>
Chroma subsampling : 4:2:0<br>
Bit depth : 8 bits<br>
Scan type : Progressive<br>
Bits/(Pixel*Frame) : 0.181<br>
Stream size : 1.43 GiB (93%)<br>
Default : Yes<br>
Forced : No<br>
Color range : Limited<br>
Color primaries : BT.709<br>
Transfer characteristics : BT.709<br>
Matrix coefficients : BT.709<br>
<br>
Audio<br>
ID : 2<br>
Format : E-AC-3<br>
Format/Info : Enhanced AC-3<br>
Commercial name : Dolby Digital Plus<br>
Codec ID : A_EAC3<br>
Duration : 22 min 41 s<br>
Bit rate mode : Constant<br>
Bit rate : 640 kb/s<br>
Channel(s) : 6 channels<br>
Channel layout : L R C LFE Ls Rs<br>
Sampling rate : 48.0 kHz<br>
Frame rate : 31.250 FPS (1536 SPF)<br>
Compression mode : Lossy<br>
Stream size : 104 MiB (7%)<br>
Language : English<br>
Service kind : Complete Main<br>
Default : Yes<br>
Forced : No<br>
<br>
Text<br>
ID : 3<br>
Format : UTF-8<br>
Codec ID : S_TEXT/UTF8<br>
Codec ID/Info : UTF-8 Plain Text<br>
Duration : 22 min 29 s<br>
Bit rate : 90 b/s<br>
Frame rate : 0.319 FPS<br>
Count of elements : 431<br>
Stream size : 14.9 KiB (0%)<br>
Title : SDH<br>
Language : English<br>
Default : No<br>
Forced : No</div>
</div><br>
Screenshots:<br>
<img src="https://i.imgur.com/E4YW8iA.jpg" class="bbCodeImage LbImage" alt="[​IMG]" data-url="https://i.imgur.com/E4YW8iA.jpg" style=""> <br>
<br>
<div class="bbCodeBlock bbCodeVfcHH HiddenContent">
<div class="attribution type">Hidden Content:</div>
<blockquote>You must either reply or click 'Like' to see the hidden information contained here.</blockquote>
</div>
<div class="messageTextEndMarker">&nbsp;</div>
</blockquote>
</article>]]></description>
                <author><![CDATA[LazyRips]]></author>
                </item>

                </channel></rss>